#!OML:ASF H:\Terrain\Patient Classification 1\Terrain2\Thursday\justin.ASF
:FULLY-SPECIFIED
:DEGREES
1854
root -11.2223 17.2567 -10.8039 271.707 78.9332 -87.8435
lowerback 11.1886 0.563033 10.5687
upperback 4.51257 2.2892 4.59165
thorax -1.30911 1.34739 -1.392
lowerneck -12.7378 -4.09722 -9.51633
upperneck 37.8505 -3.11043 4.03213
head 15.8068 -1.5779 3.06208
rclavicle 3.49861e-014 4.53229e-014
rhumerus -27.6084 -8.59589 -79.1396
rradius 29.0847
rwrist -13.1925
rhand -22.8006 11.6623
rfingers 7.12502
rthumb 3.63563 -18.2865
lclavicle 3.49861e-014 4.53229e-014
lhumerus -32.8874 9.9264 84.3436
lradius 23.9401
lwrist -3.46617
lhand -19.3257 21.5865
lfingers 7.12502
lthumb 6.99075 51.4511
rfemur 15.1342 -6.98282 34.142
rtibia 9.54166e-015
rfoot -12.4382 4.5123
rtoes 13.0029
lfemur -65.1724 4.19194 -10.8794
ltibia 73.9705
lfoot -3.5544 -13.6334
ltoes 6.68727
1855
root -11.1357 17.2524 -10.8048 270.529 78.9802 -88.95
lowerback 11.1863 0.581711 10.5979
upperback 4.59246 2.30969 4.53637
thorax -1.21739 1.36557 -1.46616
lowerneck -12.7687 -4.17232 -9.44639
upperneck 37.8449 -3.23304 4.01529
head 15.8208 -1.62075 3.02118
rclavicle 7.15625e-015 0
rhumerus -27.6426 -8.73006 -79.2734
rradius 29.0336
rwrist -13.3094
rhand -22.3111 12.1516
rfingers 7.12502
rthumb 4.10837 -17.7886
lclavicle 7.15625e-015 0
lhumerus -32.7062 9.73373 84.2215
lradius 23.8381
lwrist -3.20706
lhand -19.9101 21.7924
lfingers 7.12502
lthumb 6.42659 51.6749
rfemur 15.599 -7.15814 33.9567
rtibia 2.8625e-014
rfoot -12.6414 4.77937
rtoes 14.533
lfemur -65.0608 3.81468 -10.8432
ltibia 73.0259
lfoot -1.53045 -12.9101
ltoes 11.47
1856
root -11.0481 17.2465 -10.8011 269.084 79.2577 -90.3666
lowerback 11.1272 0.501191 10.1845
upperback 4.73057 2.14348 4.55595
thorax -1.07531 1.29008 -1.19682
lowerneck -13.274 -4.17179 -10.2687
upperneck 38.1299 -3.12689 4.55866
head 16.1211 -1.62511 3.43588
rclavicle 6.36111e-015 4.33351e-014
rhumerus -27.2994 -8.69162 -79.3787
rradius 28.8039
rwrist -13.1721
rhand -21.8739 12.3438
rfingers 7.12502
rthumb 4.53051 -17.5877
lclavicle 6.36111e-015 4.33351e-014
lhumerus -32.5429 9.96913 84.1759
lradius 23.8208
lwrist -2.86641
lhand -20.3176 21.9573
lfingers 7.12502
lthumb 6.03323 51.8514
rfemur 15.9304 -7.39345 33.6435
rtibia 2.54444e-014
rfoot -12.8032 4.55648
rtoes 13.7143
lfemur -64.9971 3.40967 -11.1142
ltibia 72.2039
lfoot 0.13908 -12.4314
ltoes 14.611
1857
root -10.9617 17.2444 -10.7957 268.129 79.3426 -91.2728
lowerback 11.1872 0.51339 9.97679
upperback 4.78866 2.14862 4.63031
thorax -1.05909 1.29405 -1.00645
lowerneck -12.8692 -4.10587 -9.46426
upperneck 37.7413 -3.0433 3.79762
head 15.7721 -1.57401 2.95671
rclavicle -5.66536e-015 -3.57812e-015
rhumerus -27.221 -8.52387 -79.355
rradius 28.7633
rwrist -13.1438
rhand -22.1349 12.2299
rfingers 7.12502
rthumb 4.27853 -17.7068
lclavicle -5.66536e-015 -3.57812e-015
lhumerus -32.4969 9.95234 84.334
lradius 23.8549
lwrist -2.46474
lhand -20.097 21.9671
lfingers 7.12502
lthumb 6.24613 51.855
rfemur 16.3023 -7.54195 33.5597
rtibia 3.81667e-014
rfoot -12.9739 4.31508
rtoes 11.952
lfemur -64.866 3.18877 -11.1809
ltibia 71.4694
lfoot 1.33634 -12.7042
ltoes 13.3141
1858
root -10.87 17.2226 -10.7998 267.303 79.1751 -91.9837
lowerback 11.3155 0.579538 10.2707
upperback 4.79741 2.28917 4.63177
thorax -1.09375 1.36825 -1.18458
lowerneck -12.5126 -4.13644 -9.24572
upperneck 37.5417 -3.16053 3.72826
head 15.5866 -1.59696 2.86314
rclavicle -1.09332e-014 -3.29983e-014
rhumerus -27.4989 -8.46159 -79.4311
rradius 28.8977
rwrist -13.1626
rhand -22.9666 12.0433
rfingers 7.12502
rthumb 3.47533 -17.9082
lclavicle -1.09332e-014 -3.29983e-014
lhumerus -32.476 9.37337 84.4894
lradius 23.924
lwrist -2.03988
lhand -19.7465 21.876
lfingers 7.12502
lthumb 6.58452 51.7536
rfemur 16.7524 -7.66814 33.6612
rtibia -3.18055e-015
rfoot -13.1907 4.23163
rtoes 11.5639
lfemur -64.7013 2.83137 -10.8668
ltibia 70.9531
lfoot 2.33121 -13.1268
ltoes 12.3097
1859
root -10.7785 17.219 -10.8042 266.193 79.156 -93.0769
lowerback 11.3098 0.675652 10.4648
upperback 4.83213 2.42965 4.53749
thorax -1.02638 1.44492 -1.40365
lowerneck -12.5494 -4.23889 -9.32178
upperneck 37.563 -3.43312 4.12874
head 15.6405 -1.66637 3.00609
rclavicle -3.08116e-015 -1.19271e-015
rhumerus -27.608 -8.58386 -79.6185
rradius 28.9208
rwrist -13.2001
rhand -22.9162 12.1302
rfingers 7.12502
rthumb 3.52401 -17.8205
lclavicle -3.08116e-015 -1.19271e-015
lhumerus -32.3571 8.7707 84.4976
lradius 24.039
lwrist -1.78055
lhand -19.6877 21.9934
lfingers 7.12502
lthumb 6.64133 51.8693
rfemur 17.1218 -7.82024 33.5289
rtibia 9.54166e-015
rfoot -13.0934 4.62275
rtoes 16.0895
lfemur -64.4815 2.35584 -10.7388
ltibia 70.482
lfoot 2.67087 -13.4709
ltoes 12.3029
1860
root -10.6852 17.2 -10.8059 265.764 78.9879 -93.5747
lowerback 11.2333 0.756926 10.6634
upperback 4.85146 2.54859 4.56291
thorax -0.943128 1.51174 -1.49519
lowerneck -12.5669 -4.36656 -9.49254
upperneck 37.5062 -3.64825 4.32
head 15.6477 -1.75532 3.08096
rclavicle 1.17283e-014 -5.1684e-015
rhumerus -27.6305 -8.70398 -79.6491
rradius 28.8841
rwrist -12.8509
rhand -22.2036 12.039
rfingers 7.12502
rthumb 4.21212 -17.8991
lclavicle 1.17283e-014 -5.1684e-015
lhumerus -32.2749 8.74967 84.4261
lradius 24.1274
lwrist -1.76307
lhand -19.7834 22.2161
lfingers 7.12502
lthumb 6.54894 52.0949
rfemur 17.2985 -7.87397 33.6745
rtibia -5.725e-014
rfoot -12.9557 4.64629
rtoes 16.6798
lfemur -64.5423 2.1565 -10.5167
ltibia 70.2839
lfoot 2.95424 -14.1936
ltoes 12.0545
1861
root -10.5944 17.198 -10.8106 266.279 78.5726 -93.1191
lowerback 11.2579 0.823106 11.16
upperback 4.82534 2.70243 4.63756
thorax -0.944938 1.59547 -1.70528
lowerneck -12.5283 -4.42225 -9.57138
upperneck 37.5293 -3.72309 4.37249
head 15.6624 -1.78904 3.10675
rclavicle 5.27773e-014 6.83819e-014
rhumerus -27.7714 -9.0597 -79.6222
rradius 28.9466
rwrist -12.2828
rhand -21.8721 11.6937
rfingers 7.12502
rthumb 4.53227 -18.2378
lclavicle 5.27773e-014 6.83819e-014
lhumerus -32.1962 9.16913 84.2318
lradius 24.0398
lwrist -2.09705
lhand -19.8169 22.0755
lfingers 7.12502
lthumb 6.51657 51.9553
rfemur 17.7763 -7.73985 33.9573
rtibia -9.54166e-015
rfoot -13.1542 5.27695
rtoes 19.7145
lfemur -64.5012 2.11754 -9.93641
ltibia 70.1836
lfoot 3.78995 -15.4855
ltoes 13.0523
1862
root -10.5003 17.1833 -10.8156 266.439 78.5042 -93.1168
lowerback 11.187 0.844951 11.2065
upperback 4.7953 2.72934 4.67983
thorax -0.93469 1.60854 -1.68739
lowerneck -12.6507 -4.35263 -9.5999
upperneck 37.6676 -3.55952 4.30772
head 15.7458 -1.73122 3.11674
rclavicle -8.94531e-015 -3.65764e-014
rhumerus -27.822 -8.61566 -79.7509
rradius 29.0854
rwrist -12.5685
rhand -21.8898 11.4125
rfingers 7.12502
rthumb 4.5152 -18.5193
lclavicle -8.94531e-015 -3.65764e-014
lhumerus -32.2061 9.48755 84.207
lradius 24.1373
lwrist -2.0496
lhand -19.905 21.985
lfingers 7.12502
lthumb 6.43154 51.8673
rfemur 18.099 -7.64901 33.922
rtibia -3.18055e-014
rfoot -13.5786 5.65888
rtoes 20.3142
lfemur -64.4943 1.89577 -9.72728
ltibia 70.3081
lfoot 4.28339 -16.6452
ltoes 16.0761
